HIERARCHY
ROOT Hips
{
  OFFSET 0 0 0
  CHANNELS 6 Xposition Yposition Zposition Zrotation Xrotation Yrotation
  JOINT Spine
  {
    OFFSET 0 10.1816 0.131521
    CHANNELS 3 Zrotation Xrotation Yrotation
    JOINT Spine1
    {
      OFFSET 0 10.0835 -1.0008
      CHANNELS 3 Zrotation Xrotation Yrotation
      JOINT Spine2
      {
        OFFSET 0 9.10001 -1.37342
        CHANNELS 3 Zrotation Xrotation Yrotation
        JOINT Neck
        {
          OFFSET 0 16.6717 -2.51617
          CHANNELS 3 Zrotation Xrotation Yrotation
          JOINT Head
          {
            OFFSET 0 9.61788 1.68501
            CHANNELS 3 Zrotation Xrotation Yrotation
            End Site
            {
              OFFSET 0 0 0
            }
          }
        }
        JOINT LeftShoulder
        {
          OFFSET 4.57045 10.946 -2.62799
          CHANNELS 3 Zrotation Xrotation Yrotation
          JOINT LeftArm
          {
            OFFSET 10.5924 -0.524583 -2.23212
            CHANNELS 3 Zrotation Xrotation Yrotation
            JOINT LeftForeArm
            {
              OFFSET 27.8415 -8.94286e-05 3.74589e-05
              CHANNELS 3 Zrotation Xrotation Yrotation
              JOINT LeftHand
              {
                OFFSET 28.3288 -1.74407e-05 3.78045e-05
                CHANNELS 3 Zrotation Xrotation Yrotation
                End Site
                {
                  OFFSET 0 0 0
                }
              }
            }
          }
        }
        JOINT RightShoulder
        {
          OFFSET -4.56997 10.9462 -2.62802
          CHANNELS 3 Zrotation Xrotation Yrotation
          JOINT RightArm
          {
            OFFSET -10.5928 -0.524798 -2.2321
            CHANNELS 3 Zrotation Xrotation Yrotation
            JOINT RightForeArm
            {
              OFFSET -27.8415 -3.30792e-05 1.16763e-05
              CHANNELS 3 Zrotation Xrotation Yrotation
              JOINT RightHand
              {
                OFFSET -28.3288 0 5.5816e-05
                CHANNELS 3 Zrotation Xrotation Yrotation
                End Site
                {
                  OFFSET 0 0 0
                }
              }
            }
          }
        }
      }
    }
  }
  JOINT LeftUpLeg
  {
    OFFSET 8.20778 -6.75171 -1.59956
    CHANNELS 3 Zrotation Xrotation Yrotation
    JOINT LeftLeg
    {
      OFFSET 0 -44.3705 0.284643
      CHANNELS 3 Zrotation Xrotation Yrotation
      JOINT LeftFoot
      {
        OFFSET 0 -44.4279 -2.98219
        CHANNELS 3 Zrotation Xrotation Yrotation
        JOINT LeftToeBase
        {
          OFFSET 0 -8.72867 10.7106
          CHANNELS 3 Zrotation Xrotation Yrotation
          End Site
          {
            OFFSET 0 0 0
          }
        }
      }
    }
  }
  JOINT RightUpLeg
  {
    OFFSET -8.2078 -6.75166 -1.59956
    CHANNELS 3 Zrotation Xrotation Yrotation
    JOINT RightLeg
    {
      OFFSET 0 -44.3705 0.286156
      CHANNELS 3 Zrotation Xrotation Yrotation
      JOINT RightFoot
      {
        OFFSET 0 -44.4277 -2.98379
        CHANNELS 3 Zrotation Xrotation Yrotation
        JOINT RightToeBase
        {
          OFFSET 0 -8.72867 10.7106
          CHANNELS 3 Zrotation Xrotation Yrotation
          End Site
          {
            OFFSET 0 0 0
          }
        }
      }
    }
  }
}
MOTION
Frames:	6
Frame Time:	0.0333333
-239.086 95.6456 -83.6801 -5.79429 9.29246 -3.25532 0.626455 5.32449 -1.47696 1.40025 10.6307 -3.03229 1.40026 10.6307 -3.03231 3.26593 21.4556 -0.16876 -1.79271 -16.8854 1.35937 -9.23907 0.863823 -2.39977 -44.8992 26.3725 -41.5112 1.4441 -5.79831 -82.5116 10.7275 26.1274 -3.80581 14.5475 -0.437898 -5.28333 75.1331 43.7976 -22.9874 -13.4606 -7.8437 26.5675 -3.56971 10.6169 -7.61426 -0.641418 4.05973 -4.73008 -4.20362 22.0256 1.98939 9.62781 -7.43874 0.501398 -8.00747e-07 -4.64885e-06 1.17336e-05 2.43086 -40.8271 -5.11478 2.37977 15.9918 -5.7078 5.44537 -6.98013 -3.551 -8.19291e-07 1.36546e-06 1.00857e-05 
-240.185 94.7317 -78.3958 -7.40832 9.44096 -2.51439 1.14237 5.29162 -1.34221 2.42505 10.5537 -2.8086 2.42506 10.5537 -2.80862 1.79317 21.6901 0.148562 -1.4223 -17.6652 1.03251 -9.87483 0.769511 -1.64832 -48.3215 24.0171 -39.0384 1.07854 -3.97583 -86.5083 13.0819 28.2321 -5.46296 14.3768 -0.409711 -5.16423 74.7468 42.4609 -23.2929 -13.6819 -7.82819 26.1308 -4.88115 8.2857 -8.19523 1.85038 1.74769 -2.58449 -3.51304 31.2835 -0.173171 5.35726 -1.39712 -1.49515 -8.00747e-07 -4.64885e-06 1.17336e-05 5.45711 -42.4778 -1.67876 2.37202 23.35 -6.53929 2.79962 -3.53451 -3.9812 -8.19291e-07 1.36546e-06 1.00857e-05 
-241.135 93.673 -73.0768 -8.55171 9.02565 -1.58512 1.54735 5.41782 -1.15683 3.22644 10.8011 -2.47757 3.22644 10.8011 -2.47757 1.45656 21.6981 -0.278825 -1.72996 -18.0313 0.445943 -10.1224 0.861456 -2.1324 -52.085 21.7579 -35.1685 1.00632 -3.37309 -88.4941 13.7076 30.7979 -5.53742 14.8805 -0.399896 -5.07026 73.0995 41.694 -21.8101 -14.2377 -7.98174 25.6452 -5.59661 5.1265 -8.91527 3.72295 -3.59225 -0.0722974 -0.854084 46.4139 -4.77453 0.734923 5.94197 -3.70382 -8.00747e-07 -4.64885e-06 1.17336e-05 7.33644 -43.64 2.81513 3.88386 31.2613 -10.1134 2.66526 -3.03179 -5.68355 -8.19291e-07 1.36546e-06 1.00857e-05 
-241.955 92.7288 -67.3711 -8.78204 8.34185 -0.801202 1.78762 5.61691 -0.92022 3.69281 11.2013 -2.03169 3.69283 11.2013 -2.03169 1.1126 21.2867 -0.923708 -1.41245 -18.2869 -0.420897 -10.3963 0.835332 -1.90644 -54.0409 21.4064 -32.2345 1.04557 -4.05068 -87.3864 15.365 30.697 -5.06465 15.211 -0.297949 -4.56425 70.8042 40.864 -18.9533 -14.4703 -8.11266 25.6431 -5.93711 2.74842 -9.14892 4.30929 -10.8364 -1.09991 1.0088 62.2095 -5.89621 -7.15293 13.0819 -2.2882 -8.00747e-07 -4.64885e-06 1.17336e-05 7.72706 -43.8097 3.24161 5.06484 39.5418 -11.9087 1.54817 -7.48606 -5.99018 -8.19291e-07 1.36546e-06 1.00857e-05 
-242.799 91.9751 -61.5161 -8.08444 7.28666 -0.684299 1.7591 5.93547 -0.608657 3.611 11.8491 -1.41275 3.61101 11.8491 -1.41275 0.311628 20.9025 -1.37401 -0.418277 -19.147 -1.31437 -10.8888 0.81961 -1.69308 -54.4648 22.0547 -29.3938 1.40409 -6.19612 -83.1151 16.2446 29.415 -4.99853 15.2394 -0.0589307 -3.44693 68.0175 40.5182 -14.5236 -14.1822 -8.00621 25.8093 -7.54108 0.480724 -8.46843 2.91661 -18.5642 -2.07204 4.61819 75.5968 -7.25855 -3.00512 9.38478 -1.54685 -8.00747e-07 -4.64885e-06 1.17336e-05 7.10885 -42.1445 0.893665 4.31223 45.9208 -10.8942 0.521451 -12.2415 -5.37038 -8.19291e-07 1.36546e-06 1.00857e-05 
-243.698 91.1021 -55.6672 -7.52764 6.43435 -1.72879 1.63865 6.34473 -0.00546622 3.30868 12.6867 -0.196642 3.3087 12.6867 -0.196646 -0.272415 19.1966 -1.91343 0.261248 -19.1212 -2.16648 -11.4531 0.742125 -1.13196 -53.8988 23.8441 -27.4177 2.57051 -9.2402 -76.4367 16.1214 28.4006 -3.69478 15.6439 0.0422305 -2.97417 63.5497 41.7808 -8.16108 -14.1968 -8.19077 26.3241 -9.47322 -3.37459 -7.74649 2.21181 -27.2402 -1.39366 23.4782 84.6438 -21.8223 -2.28898 3.4754 1.18821 -8.00747e-07 -4.64885e-06 1.17336e-05 7.59128 -39.7832 0.302233 3.10856 51.0696 -9.49515 0.878056 -17.6726 -4.81877 -8.19291e-07 1.36546e-06 1.00857e-05 
